<svg height="512pt" viewBox="0 0 512 512" width="512pt" xmlns="http://www.w3.org/2000/svg" xmlns:xlink="http://www.w3.org/1999/xlink"><linearGradient id="a" gradientUnits="userSpaceOnUse" x1="256" x2="256" y1="0" y2="512"><stop offset="0" stop-color="#2af598"/><stop offset="1" stop-color="#009efd"/></linearGradient><path d="m512 148h-324v-148h324zm-284-40h244v-68h-244zm284 404h-324v-148h324zm-284-40h244v-68h-244zm284-142h-324v-148h324zm-284-40h244v-68h-244zm-80-142h-148v-148h148zm-108-40h68v-68h-68zm108 404h-148v-148h148zm-108-40h68v-68h-68zm108-142h-148v-148h148zm-108-40h68v-68h-68zm0 0" fill="url(#a)"/></svg>