<svg height="512pt" viewBox="-53 0 512 512" width="512pt" xmlns="http://www.w3.org/2000/svg" xmlns:xlink="http://www.w3.org/1999/xlink"><linearGradient id="a" gradientUnits="userSpaceOnUse" x1="202.945" x2="202.945" y1="0" y2="512"><stop offset="0" stop-color="#2af598"/><stop offset="1" stop-color="#009efd"/></linearGradient><path d="m345.890625 39h-149.691406c-8.53125-22.757812-30.5-39-56.199219-39s-47.667969 16.242188-56.199219 39h-23.800781c-33.085938 0-60 26.914062-60 60v353c0 33.085938 26.914062 60 60 60h285.890625c33.082031 0 60-26.914062 60-60v-353c0-33.085938-26.917969-60-60-60zm20 413c0 11.027344-8.972656 20-20 20h-285.890625c-11.027344 0-20-8.972656-20-20v-353c0-11.027344 8.972656-20 20-20h60v-19c0-11.027344 8.972656-20 20-20s20 8.972656 20 20v141c0 11.027344-8.972656 20-20 20s-20-8.972656-20-20v-82h-40v82c0 33.085938 26.917969 60 60 60 33.085938 0 60-26.914062 60-60v-122h145.890625c11.027344 0 20 8.972656 20 20zm0 0" fill="url(#a)"/></svg>