<svg height="512pt" viewBox="0 0 512 512" width="512pt" xmlns="http://www.w3.org/2000/svg" xmlns:xlink="http://www.w3.org/1999/xlink"><linearGradient id="a" gradientUnits="userSpaceOnUse" x1="255.9998569614" x2="255.9998569614" y1=".0003989614" y2="511.3301909614"><stop offset="0" stop-color="#2af598"/><stop offset="1" stop-color="#009efd"/></linearGradient><path d="m0 0h79.894531v79.894531h-79.894531zm511.328125 0h-79.894531v79.894531h79.894531zm-195.742187 39.949219h-39.945313v39.945312h39.945313zm77.898437 0h-39.949219v39.945312h39.949219zm-195.742187 39.945312h39.945312v-39.945312h-39.945312zm-77.898438 0h39.945312v-39.945312h-39.945312zm351.539062 117.847657h-39.949218v39.945312h39.949218zm0-77.898438h-39.949218v39.945312h39.949218zm-471.382812 391.484375h79.894531v-79.894531h-79.894531zm39.949219-195.742187h39.945312v-39.945313h-39.945312zm0 77.898437h39.945312v-39.949219h-39.945312zm0-155.796875h39.945312v-39.945312h-39.945312zm0-77.898438h39.945312v-39.945312h-39.945312zm157.792969 311.59375h39.945312v-39.949218h-39.945312zm-77.898438 0h39.945312v-39.949218h-39.945312zm280.992188-94.824218 55.976562 117.175781-36.046875 17.21875-55.855469-116.925781-77.285156 72.582031v-281.128906l224.375 179.851562zm-73.265626-2.269532 36.367188-34.152343 46.851562-4.730469-83.21875-66.707031zm0 0" fill="url(#a)"/></svg>