<svg height="512pt" viewBox="0 -9 512 511" width="512pt" xmlns="http://www.w3.org/2000/svg" xmlns:xlink="http://www.w3.org/1999/xlink"><linearGradient id="a" gradientUnits="userSpaceOnUse" x1="256.0001972766" x2="256.0001972766" y1=".500004" y2="492.5114785532"><stop offset="0" stop-color="#2af598"/><stop offset="1" stop-color="#009efd"/></linearGradient><path d="m440.039062 392.28125 71.960938 71.960938-28.269531 28.269531-71.957031-71.960938-71.960938 71.960938-28.269531-28.269531 71.960937-71.960938-71.960937-71.957031 28.269531-28.269531 71.960938 71.960937 71.957031-71.960937 28.269531 28.269531zm-400.0625 19.992188v-351.808594c0-11.019532 8.96875-19.988282 19.988282-19.988282h83.957031c11.019531 0 19.988281 8.96875 19.988281 19.988282v59.96875h307.828125v103.089844l39.976563 39.976562v-203.035156c0-33.0625-26.898438-59.964844-59.964844-59.964844h-227.925781c8.75 11.628906 15.023437 25.214844 18.03125 39.976562h209.894531c11.019531 0 19.988281 8.96875 19.988281 19.988282v19.992187h-267.851562v-19.992187c0-33.0625-26.902344-59.964844-59.964844-59.964844h-83.957031c-33.0625 0-59.964844 26.902344-59.964844 59.964844v351.808594c0 33.0625 26.902344 59.964843 59.964844 59.964843h182.855468l31.730469-39.976562h-214.585937c-11.019532 0-19.988282-8.96875-19.988282-19.988281zm0 0" fill="url(#a)"/></svg>