<svg height="512pt" viewBox="0 0 512 512" width="512pt" xmlns="http://www.w3.org/2000/svg" xmlns:xlink="http://www.w3.org/1999/xlink"><linearGradient id="a" gradientUnits="userSpaceOnUse" x1="256.0001972766" x2="256.0001972766" y1="0" y2="512.0003945532"><stop offset="0" stop-color="#2af598"/><stop offset="1" stop-color="#009efd"/></linearGradient><path d="m183.859375 397.78125v-43.878906c-10.195313-6.585938-16.953125-18.039063-16.953125-31.082032 0-20.421874 16.558594-36.980468 36.980469-36.980468 20.425781 0 36.980469 16.558594 36.980469 36.980468 0 13.074219-6.789063 24.550782-17.027344 31.128907v43.832031c0 11.035156-8.949219 19.988281-19.988282 19.988281-11.042968 0-19.992187-8.949219-19.992187-19.988281zm328.140625-57.96875-28.269531-28.269531-71.957031 71.960937-71.960938-71.960937-28.269531 28.269531 71.960937 71.960938-71.960937 71.957031 28.269531 28.269531 71.960938-71.960938 71.957031 71.960938 28.269531-28.269531-71.960938-71.957031zm-268.988281 131.925781 39.976562 39.976563h-223.023437c-33.0625 0-59.964844-26.898438-59.964844-59.964844v-203.886719c0-33.066406 26.902344-59.96875 59.964844-59.96875h35.945312v-82.183593c0-58.289063 48.421875-105.710938 107.941406-105.710938 59.515626 0 107.9375 47.421875 107.9375 105.710938v82.183593h36.019532c33.0625 0 59.964844 26.902344 59.964844 59.96875v75.105469l-39.976563-39.980469v-35.125c0-11.023437-8.96875-19.988281-19.988281-19.988281h-287.84375c-11.019532 0-19.988282 8.964844-19.988282 19.988281v203.886719c0 11.019531 8.96875 19.988281 19.988282 19.988281zm-107.125-283.84375h135.925781v-82.183593c0-36.246094-30.488281-65.734376-67.960938-65.734376-37.476562 0-67.964843 29.488282-67.964843 65.734376zm0 0" fill="url(#a)"/></svg>