<svg height="512pt" viewBox="0 -12 512 512" width="512pt" xmlns="http://www.w3.org/2000/svg" xmlns:xlink="http://www.w3.org/1999/xlink"><linearGradient id="a" gradientUnits="userSpaceOnUse" x1="256" x2="256" y1="0" y2="488"><stop offset="0" stop-color="#2af598"/><stop offset="1" stop-color="#009efd"/></linearGradient><path d="m156 184c-26.074219 0-48.304688 16.722656-56.558594 40h-99.441406v40h99.441406c8.253906 23.277344 30.484375 40 56.558594 40s48.304688-16.722656 56.558594-40h299.441406v-40h-299.441406c-8.253906-23.277344-30.484375-40-56.558594-40zm0 80c-11.027344 0-20-8.972656-20-20s8.972656-20 20-20 20 8.972656 20 20-8.972656 20-20 20zm268.558594-224c-8.253906-23.277344-30.484375-40-56.558594-40s-48.304688 16.722656-56.558594 40h-311.441406v40h311.441406c8.253906 23.277344 30.484375 40 56.558594 40s48.304688-16.722656 56.558594-40h87.441406v-40zm-56.558594 40c-11.027344 0-20-8.972656-20-20s8.972656-20 20-20 20 8.972656 20 20-8.972656 20-20 20zm-38 288c-26.074219 0-48.304688 16.722656-56.558594 40h-273.441406v40h273.441406c8.253906 23.277344 30.484375 40 56.558594 40s48.304688-16.722656 56.558594-40h125.441406v-40h-125.441406c-8.253906-23.277344-30.484375-40-56.558594-40zm0 80c-11.027344 0-20-8.972656-20-20s8.972656-20 20-20 20 8.972656 20 20-8.972656 20-20 20zm0 0" fill="url(#a)"/></svg>