<svg height="512pt" viewBox="0 0 512 512" width="512pt" xmlns="http://www.w3.org/2000/svg" xmlns:xlink="http://www.w3.org/1999/xlink"><linearGradient id="a" gradientUnits="userSpaceOnUse" x1="256" x2="256" y1="0" y2="512"><stop offset="0" stop-color="#2af598"/><stop offset="1" stop-color="#009efd"/></linearGradient><path d="m452 0h-392c-33.085938 0-60 26.914062-60 60v392c0 33.085938 26.914062 60 60 60h392c33.085938 0 60-26.914062 60-60v-392c0-33.085938-26.914062-60-60-60zm20 452c0 11.027344-8.972656 20-20 20h-392c-11.027344 0-20-8.972656-20-20v-392c0-11.027344 8.972656-20 20-20h392c11.027344 0 20 8.972656 20 20zm-192-101h40v81h-240v-196c0-22.054688 17.945312-40 40-40h32v40h-32v35h32v40h-32v81h160zm112-271h-160c-22.054688 0-40 17.945312-40 40v191h240v-191c0-22.054688-17.945312-40-40-40zm0 40v35h-160v-35zm-160 151v-76h160v76zm0 0" fill="url(#a)"/></svg>