<svg height="512pt" viewBox="0 0 512 512" width="512pt" xmlns="http://www.w3.org/2000/svg" xmlns:xlink="http://www.w3.org/1999/xlink"><linearGradient id="a" gradientUnits="userSpaceOnUse" x1="256" x2="256" y1="0" y2="512"><stop offset="0" stop-color="#2af598"/><stop offset="1" stop-color="#009efd"/></linearGradient><path d="m175 351h162c33.085938 0 60-26.914062 60-60v-107c0-33.085938-26.914062-60-60-60h-3.023438v-47.46875c0-42.199219-34.992187-76.53125-78-76.53125-43.011718 0-78 34.332031-78 76.53125v47.46875h-2.976562c-33.085938 0-60 26.914062-60 60v107c0 33.085938 26.914062 60 60 60zm42.976562-274.46875c0-20.144531 17.046876-36.53125 38-36.53125 20.953126 0 38 16.386719 38 36.53125v47.46875h-76zm-62.976562 107.46875c0-11.027344 8.972656-20 20-20h162c11.027344 0 20 8.972656 20 20v107c0 11.027344-8.972656 20-20 20h-162c-11.027344 0-20-8.972656-20-20zm357 177v101c0 27.570312-22.429688 50-50 50h-412c-27.570312 0-50-22.429688-50-50v-101c0-27.570312 22.429688-50 50-50h38v40h-38c-5.515625 0-10 4.484375-10 10v101c0 5.515625 4.484375 10 10 10h412c5.515625 0 10-4.484375 10-10v-101c0-5.515625-4.484375-10-10-10h-29v-40h29c27.570312 0 50 22.429688 50 50zm-296 31c11.046875 0 20 8.953125 20 20s-8.953125 20-20 20-20-8.953125-20-20 8.953125-20 20-20zm-80 0c11.046875 0 20 8.953125 20 20s-8.953125 20-20 20-20-8.953125-20-20 8.953125-20 20-20zm160 0c11.046875 0 20 8.953125 20 20s-8.953125 20-20 20-20-8.953125-20-20 8.953125-20 20-20zm80 0c11.046875 0 20 8.953125 20 20s-8.953125 20-20 20-20-8.953125-20-20 8.953125-20 20-20zm-140-155c0-11.046875 8.953125-20 20-20s20 8.953125 20 20-8.953125 20-20 20-20-8.953125-20-20zm0 0" fill="url(#a)"/></svg>