<svg height="512pt" viewBox="0 0 512 512" width="512pt" xmlns="http://www.w3.org/2000/svg" xmlns:xlink="http://www.w3.org/1999/xlink"><linearGradient id="a" gradientUnits="userSpaceOnUse" x1="256" x2="256" y1="0" y2="512"><stop offset="0" stop-color="#2af598"/><stop offset="1" stop-color="#009efd"/></linearGradient><path d="m462 364h-70v-314c0-27.570312-22.429688-50-50-50h-292c-27.570312 0-50 22.429688-50 50v412c0 27.570312 22.429688 50 50 50h412c27.570312 0 50-22.429688 50-50v-48c0-27.570312-22.429688-50-50-50zm-110-314v314h-100v-324h90c5.515625 0 10 4.484375 10 10zm-312 0c0-5.515625 4.484375-10 10-10h162v324h-172zm432 412c0 5.515625-4.484375 10-10 10h-412c-5.515625 0-10-4.484375-10-10v-58h422c5.515625 0 10 4.484375 10 10zm-300-382v40h-92v-40zm-92 80h92v40h-92zm17 278c0 11.046875-8.953125 20-20 20s-20-8.953125-20-20 8.953125-20 20-20 20 8.953125 20 20zm0 0" fill="url(#a)"/></svg>