<svg height="512pt" viewBox="0 -30 512 512" width="512pt" xmlns="http://www.w3.org/2000/svg" xmlns:xlink="http://www.w3.org/1999/xlink"><linearGradient id="a" gradientUnits="userSpaceOnUse" x1="256" x2="256" y1="0" y2="452"><stop offset="0" stop-color="#2af598"/><stop offset="1" stop-color="#009efd"/></linearGradient><path d="m359 0h-103c-84.363281 0-153 68.636719-153 153 0 .460938.011719.917969.019531 1.375-26.621093 9.230469-50.496093 25.800781-68.503906 47.816406-22.257813 27.214844-34.515625 61.59375-34.515625 96.808594 0 84.363281 68.636719 153 153 153h113c84.363281 0 153-68.636719 153-153 0-1.738281-.039062-3.46875-.097656-5.191406 24.902344-10.5625 46.441406-27.445313 62.851562-49.464844 19.785156-26.558594 30.246094-58.144531 30.246094-91.34375 0-84.363281-68.636719-153-153-153zm52.898438 252.90625c-19.601563-61.90625-77.589844-106.90625-145.898438-106.90625h-82.65625c-.222656 2.304688-.34375 4.636719-.34375 7 0 11.871094 2.867188 23.082031 7.917969 33h75.082031c62.308594 0 113 50.691406 113 113s-50.691406 113-113 113h-113c-62.308594 0-113-50.691406-113-113 0-45.710938 27.964844-86.566406 68.855469-104.015625 18.292969 64.015625 77.332031 111.015625 147.144531 111.015625h82.65625c.222656-2.304688.34375-4.636719.34375-7 0-11.871094-2.867188-23.082031-7.917969-33h-75.082031c-62.308594 0-113-50.691406-113-113s50.691406-113 113-113h103c62.308594 0 113 50.691406 113 113 0 42.640625-23.484375 80.628906-60.101562 99.90625zm0 0" fill="url(#a)"/></svg>