<?xml version="1.0" encoding="UTF-8"?>
<svg width="24px" height="24px" viewBox="0 0 24 24" version="1.1" xmlns="http://www.w3.org/2000/svg" xmlns:xlink="http://www.w3.org/1999/xlink">
    <!-- Generator: Sketch 54.1 (76490) - https://sketchapp.com -->
    <title>Icon/24/zOther/emailSent_24</title>
    <desc>Created with Sketch.</desc>
    <g id="Icon/24/zOther/emailSent_24" stroke="none" stroke-width="1" fill="none" fill-rule="evenodd">
        <path d="M8.24403065,7 L22.1559693,7 C22.9843965,7 23.6559693,7.67157288 23.6559693,8.5 C23.6559693,8.64598685 23.6346578,8.79119179 23.5927088,8.93102183 L21.1927088,16.9310218 C21.002366,17.5654978 20.4183817,18 19.7559693,18 L5.84403065,18 C5.01560353,18 4.34403065,17.3284271 4.34403065,16.5 C4.34403065,16.3540132 4.36534221,16.2088082 4.40729122,16.0689782 L6.80729122,8.06897817 C6.99763401,7.43450223 7.58161832,7 8.24403065,7 Z M8.24403065,8 C8.02322654,8 7.8285651,8.14483408 7.76511751,8.35632606 L5.36511751,16.3563261 C5.3511345,16.4029361 5.34403065,16.4513377 5.34403065,16.5 C5.34403065,16.7761424 5.56788828,17 5.84403065,17 L19.7559693,17 C19.9767735,17 20.1714349,16.8551659 20.2348825,16.6436739 L22.6348825,8.64367394 C22.6488655,8.59706393 22.6559693,8.54866228 22.6559693,8.5 C22.6559693,8.22385763 22.4321117,8 22.1559693,8 L8.24403065,8 Z M20.8535534,17.1464466 L20.1464466,17.8535534 L15.1464466,12.8535534 L15.8535534,12.1464466 L20.8535534,17.1464466 Z M1.5,12 L3.5,12 C3.77614237,12 4,12.2238576 4,12.5 C4,12.7761424 3.77614237,13 3.5,13 L1.5,13 C1.22385763,13 1,12.7761424 1,12.5 C1,12.2238576 1.22385763,12 1.5,12 Z M0.5,10 L4.5,10 C4.77614237,10 5,10.2238576 5,10.5 C5,10.7761424 4.77614237,11 4.5,11 L0.5,11 C0.223857625,11 -8.49064752e-13,10.7761424 -8.49098569e-13,10.5 C-8.49132387e-13,10.2238576 0.223857625,10 0.5,10 Z M13.5677352,12.8606285 L21.7283744,7.58021492 C21.9602153,7.43020022 22.2697704,7.49653346 22.4197851,7.72837436 C22.5697998,7.96021526 22.5034665,8.26977038 22.2716256,8.41978508 L13.7716256,13.9197851 C13.5736811,14.0478668 13.3131604,14.0202672 13.1464466,13.8535534 L7.64644661,8.35355339 C7.45118446,8.15829124 7.45118446,7.84170876 7.64644661,7.64644661 C7.84170876,7.45118446 8.15829124,7.45118446 8.35355339,7.64644661 L13.5677352,12.8606285 Z M6.33786231,17.8685771 L5.66213769,17.1314229 L11.6621377,11.6314229 L12.3378623,12.3685771 L6.33786231,17.8685771 Z" id="Icon-color" fill="#000000" fill-rule="nonzero"></path>
    </g>
</svg>